{
    "asset" : {
        "generator" : "Khronos glTF Blender I/O v0.9.29",
        "version" : "2.0"
    },
    "scene" : 0,
    "scenes" : [
        {
            "name" : "Scene",
            "nodes" : [
                0,
                1,
                2,
                10,
                11
            ]
        }
    ],
    "nodes" : [
        {
            "name" : "Light",
            "rotation" : [
                0.16907575726509094,
                0.7558803558349609,
                -0.27217137813568115,
                0.570947527885437
            ],
            "translation" : [
                4.076245307922363,
                5.903861999511719,
                -1.0054539442062378
            ]
        },
        {
            "name" : "Camera",
            "rotation" : [
                0.483536034822464,
                0.33687159419059753,
                -0.20870360732078552,
                0.7804827094078064
            ],
            "translation" : [
                7.358891487121582,
                4.958309173583984,
                6.925790786743164
            ]
        },
        {
            "name" : "Line01",
            "rotation" : [
                0.7071068286895752,
                0,
                0,
                0.7071067094802856
            ],
            "scale" : [
                0.02539999969303608,
                0.02539999969303608,
                0.02539999969303608
            ],
            "translation" : [
                -0.4744509756565094,
                0.3503585457801819,
                0
            ]
        },
        {
            "mesh" : 0,
            "name" : "Line002",
            "translation" : [
                20.005809783935547,
                9.243385314941406,
                31.057510375976562
            ]
        },
        {
            "mesh" : 1,
            "name" : "Line003",
            "rotation" : [
                1,
                0,
                0,
                7.549790126404332e-08
            ],
            "scale" : [
                -1,
                -1,
                -1
            ],
            "translation" : [
                -19.964187622070312,
                9.243385314941406,
                31.057510375976562
            ]
        },
        {
            "mesh" : 2,
            "name" : "Line004",
            "rotation" : [
                0,
                -0.9993867874145508,
                0,
                0.035015176981687546
            ],
            "translation" : [
                -20.11155128479004,
                9.243385314941406,
                -30.559101104736328
            ]
        },
        {
            "mesh" : 3,
            "name" : "Line005",
            "rotation" : [
                -0.07243894785642624,
                0,
                0.9973728656768799,
                -4.906554096351101e-08
            ],
            "scale" : [
                -0.9999999403953552,
                -1,
                -0.9999999403953552
            ],
            "translation" : [
                20.24625587463379,
                9.243385314941406,
                -30.467182159423828
            ]
        },
        {
            "mesh" : 4,
            "name" : "Line006",
            "rotation" : [
                -0.3328034281730652,
                0,
                0.9429962038993835,
                -1.4569214101811667e-07
            ],
            "scale" : [
                -0.9999999403953552,
                -1,
                -0.9999999403953552
            ],
            "translation" : [
                21.455812454223633,
                9.243385314941406,
                -0.5671412944793701
            ]
        },
        {
            "mesh" : 5,
            "name" : "Line007",
            "rotation" : [
                0,
                -0.9429963231086731,
                0,
                0.3328031301498413
            ],
            "translation" : [
                -21.552993774414062,
                9.243385314941406,
                -0.5671391487121582
            ]
        },
        {
            "mesh" : 6,
            "name" : "Patas de Mesa",
            "translation" : [
                -0.20250511169433594,
                -5.312688827514648,
                -0.08784258365631104
            ]
        },
        {
            "children" : [
                3,
                4,
                5,
                6,
                7,
                8,
                9
            ],
            "mesh" : 7,
            "name" : "Tool Table",
            "scale" : [
                0.02539999969303608,
                0.02539999969303608,
                0.02539999969303608
            ],
            "translation" : [
                -0.0028413478285074234,
                0.24706748127937317,
                0.02386842481791973
            ]
        },
        {
            "mesh" : 8,
            "name" : "Text001",
            "rotation" : [
                0.7071068286895752,
                0,
                0,
                0.7071067094802856
            ],
            "scale" : [
                0.0011744401417672634,
                0.02539999969303608,
                0.0011744401417672634
            ],
            "translation" : [
                -0.012274977751076221,
                0.3233482539653778,
                0.9131977558135986
            ]
        }
    ],
    "materials" : [
        {
            "doubleSided" : true,
            "name" : "Metal",
            "pbrMetallicRoughness" : {
                "baseColorFactor" : [
                    0.5,
                    0.5,
                    0.5,
                    1
                ],
                "metallicFactor" : 0,
                "roughnessFactor" : 0.5527864098548889
            }
        },
        {
            "doubleSided" : true,
            "name" : "ToolTableWood",
            "pbrMetallicRoughness" : {
                "baseColorFactor" : [
                    0.5,
                    0.5,
                    0.5,
                    1
                ],
                "metallicFactor" : 0,
                "roughnessFactor" : 0.5527864098548889
            }
        },
        {
            "doubleSided" : true,
            "name" : "PoolTableSurface",
            "pbrMetallicRoughness" : {
                "baseColorFactor" : [
                    0.5,
                    0.5,
                    0.5,
                    1
                ],
                "metallicFactor" : 0,
                "roughnessFactor" : 0.5527864098548889
            }
        }
    ],
    "meshes" : [
        {
            "name" : "Mesh.006",
            "primitives" : [
                {
                    "attributes" : {
                        "POSITION" : 0,
                        "NORMAL" : 1
                    },
                    "indices" : 2,
                    "material" : 0
                }
            ]
        },
        {
            "name" : "Mesh.005",
            "primitives" : [
                {
                    "attributes" : {
                        "POSITION" : 3,
                        "NORMAL" : 4
                    },
                    "indices" : 2,
                    "material" : 0
                }
            ]
        },
        {
            "name" : "Mesh.004",
            "primitives" : [
                {
                    "attributes" : {
                        "POSITION" : 5,
                        "NORMAL" : 6
                    },
                    "indices" : 2,
                    "material" : 0
                }
            ]
        },
        {
            "name" : "Mesh.003",
            "primitives" : [
                {
                    "attributes" : {
                        "POSITION" : 7,
                        "NORMAL" : 8
                    },
                    "indices" : 2,
                    "material" : 0
                }
            ]
        },
        {
            "name" : "Mesh.002",
            "primitives" : [
                {
                    "attributes" : {
                        "POSITION" : 9,
                        "NORMAL" : 10
                    },
                    "indices" : 2,
                    "material" : 0
                }
            ]
        },
        {
            "name" : "Mesh.001",
            "primitives" : [
                {
                    "attributes" : {
                        "POSITION" : 11,
                        "NORMAL" : 12
                    },
                    "indices" : 2,
                    "material" : 0
                }
            ]
        },
        {
            "name" : "Mesh.007",
            "primitives" : [
                {
                    "attributes" : {
                        "POSITION" : 13,
                        "NORMAL" : 14,
                        "TEXCOORD_0" : 15
                    },
                    "indices" : 16,
                    "material" : 1
                }
            ]
        },
        {
            "name" : "Mesh",
            "primitives" : [
                {
                    "attributes" : {
                        "POSITION" : 17,
                        "NORMAL" : 18,
                        "TEXCOORD_0" : 19
                    },
                    "indices" : 20,
                    "material" : 1
                },
                {
                    "attributes" : {
                        "POSITION" : 21,
                        "NORMAL" : 22,
                        "TEXCOORD_0" : 23
                    },
                    "indices" : 24,
                    "material" : 2
                }
            ]
        },
        {
            "name" : "Mesh.008",
            "primitives" : [
                {
                    "attributes" : {
                        "POSITION" : 25,
                        "NORMAL" : 26
                    },
                    "indices" : 27,
                    "material" : 0
                }
            ]
        }
    ],
    "accessors" : [
        {
            "bufferView" : 0,
            "componentType" : 5126,
            "count" : 322,
            "max" : [
                1.7846406698226929,
                0.5,
                2.0967869758605957
            ],
            "min" : [
                -2.524984359741211,
                0,
                -2.1874256134033203
            ],
            "type" : "VEC3"
        },
        {
            "bufferView" : 1,
            "componentType" : 5126,
            "count" : 322,
            "type" : "VEC3"
        },
        {
            "bufferView" : 2,
            "componentType" : 5123,
            "count" : 1212,
            "type" : "SCALAR"
        },
        {
            "bufferView" : 3,
            "componentType" : 5126,
            "count" : 322,
            "max" : [
                1.7846406698226929,
                0.5,
                2.0967869758605957
            ],
            "min" : [
                -2.524984359741211,
                0,
                -2.1874256134033203
            ],
            "type" : "VEC3"
        },
        {
            "bufferView" : 4,
            "componentType" : 5126,
            "count" : 322,
            "type" : "VEC3"
        },
        {
            "bufferView" : 5,
            "componentType" : 5126,
            "count" : 322,
            "max" : [
                1.7846406698226929,
                0.5,
                2.0967869758605957
            ],
            "min" : [
                -2.524984359741211,
                0,
                -2.1874256134033203
            ],
            "type" : "VEC3"
        },
        {
            "bufferView" : 6,
            "componentType" : 5126,
            "count" : 322,
            "type" : "VEC3"
        },
        {
            "bufferView" : 7,
            "componentType" : 5126,
            "count" : 322,
            "max" : [
                1.7846406698226929,
                0.5,
                2.0967869758605957
            ],
            "min" : [
                -2.366185188293457,
                0,
                -2.1874256134033203
            ],
            "type" : "VEC3"
        },
        {
            "bufferView" : 8,
            "componentType" : 5126,
            "count" : 322,
            "type" : "VEC3"
        },
        {
            "bufferView" : 9,
            "componentType" : 5126,
            "count" : 322,
            "max" : [
                1.7846406698226929,
                0.5,
                2.0967869758605957
            ],
            "min" : [
                -2.366185188293457,
                0,
                -2.1874256134033203
            ],
            "type" : "VEC3"
        },
        {
            "bufferView" : 10,
            "componentType" : 5126,
            "count" : 322,
            "type" : "VEC3"
        },
        {
            "bufferView" : 11,
            "componentType" : 5126,
            "count" : 322,
            "max" : [
                1.7846406698226929,
                0.5,
                2.0967869758605957
            ],
            "min" : [
                -2.366185188293457,
                0,
                -2.1874256134033203
            ],
            "type" : "VEC3"
        },
        {
            "bufferView" : 12,
            "componentType" : 5126,
            "count" : 322,
            "type" : "VEC3"
        },
        {
            "bufferView" : 13,
            "componentType" : 5126,
            "count" : 3436,
            "max" : [
                19.857280731201172,
                6.423982620239258,
                31.206310272216797
            ],
            "min" : [
                -19.857280731201172,
                -4.141911029815674,
                -31.20630645751953
            ],
            "type" : "VEC3"
        },
        {
            "bufferView" : 14,
            "componentType" : 5126,
            "count" : 3436,
            "type" : "VEC3"
        },
        {
            "bufferView" : 15,
            "componentType" : 5126,
            "count" : 3436,
            "type" : "VEC2"
        },
        {
            "bufferView" : 16,
            "componentType" : 5123,
            "count" : 18624,
            "type" : "SCALAR"
        },
        {
            "bufferView" : 17,
            "componentType" : 5126,
            "count" : 5879,
            "max" : [
                25.327571868896484,
                9.684852600097656,
                36.89073944091797
            ],
            "min" : [
                -25.327571868896484,
                0,
                -36.89073944091797
            ],
            "type" : "VEC3"
        },
        {
            "bufferView" : 18,
            "componentType" : 5126,
            "count" : 5879,
            "type" : "VEC3"
        },
        {
            "bufferView" : 19,
            "componentType" : 5126,
            "count" : 5879,
            "type" : "VEC2"
        },
        {
            "bufferView" : 20,
            "componentType" : 5123,
            "count" : 11709,
            "type" : "SCALAR"
        },
        {
            "bufferView" : 21,
            "componentType" : 5126,
            "count" : 106,
            "max" : [
                20.9396915435791,
                7.701162815093994,
                32.50285720825195
            ],
            "min" : [
                -20.9396915435791,
                7.692875385284424,
                -32.50285720825195
            ],
            "type" : "VEC3"
        },
        {
            "bufferView" : 22,
            "componentType" : 5126,
            "count" : 106,
            "type" : "VEC3"
        },
        {
            "bufferView" : 23,
            "componentType" : 5126,
            "count" : 106,
            "type" : "VEC2"
        },
        {
            "bufferView" : 24,
            "componentType" : 5123,
            "count" : 324,
            "type" : "SCALAR"
        },
        {
            "bufferView" : 25,
            "componentType" : 5126,
            "count" : 3210,
            "max" : [
                140.09999084472656,
                0.5,
                1.399999976158142
            ],
            "min" : [
                -140.10000610351562,
                0,
                -56
            ],
            "type" : "VEC3"
        },
        {
            "bufferView" : 26,
            "componentType" : 5126,
            "count" : 3210,
            "type" : "VEC3"
        },
        {
            "bufferView" : 27,
            "componentType" : 5123,
            "count" : 8556,
            "type" : "SCALAR"
        }
    ],
    "bufferViews" : [
        {
            "buffer" : 0,
            "byteLength" : 3864,
            "byteOffset" : 0
        },
        {
            "buffer" : 0,
            "byteLength" : 3864,
            "byteOffset" : 3864
        },
        {
            "buffer" : 0,
            "byteLength" : 2424,
            "byteOffset" : 7728
        },
        {
            "buffer" : 0,
            "byteLength" : 3864,
            "byteOffset" : 10152
        },
        {
            "buffer" : 0,
            "byteLength" : 3864,
            "byteOffset" : 14016
        },
        {
            "buffer" : 0,
            "byteLength" : 3864,
            "byteOffset" : 17880
        },
        {
            "buffer" : 0,
            "byteLength" : 3864,
            "byteOffset" : 21744
        },
        {
            "buffer" : 0,
            "byteLength" : 3864,
            "byteOffset" : 25608
        },
        {
            "buffer" : 0,
            "byteLength" : 3864,
            "byteOffset" : 29472
        },
        {
            "buffer" : 0,
            "byteLength" : 3864,
            "byteOffset" : 33336
        },
        {
            "buffer" : 0,
            "byteLength" : 3864,
            "byteOffset" : 37200
        },
        {
            "buffer" : 0,
            "byteLength" : 3864,
            "byteOffset" : 41064
        },
        {
            "buffer" : 0,
            "byteLength" : 3864,
            "byteOffset" : 44928
        },
        {
            "buffer" : 0,
            "byteLength" : 41232,
            "byteOffset" : 48792
        },
        {
            "buffer" : 0,
            "byteLength" : 41232,
            "byteOffset" : 90024
        },
        {
            "buffer" : 0,
            "byteLength" : 27488,
            "byteOffset" : 131256
        },
        {
            "buffer" : 0,
            "byteLength" : 37248,
            "byteOffset" : 158744
        },
        {
            "buffer" : 0,
            "byteLength" : 70548,
            "byteOffset" : 195992
        },
        {
            "buffer" : 0,
            "byteLength" : 70548,
            "byteOffset" : 266540
        },
        {
            "buffer" : 0,
            "byteLength" : 47032,
            "byteOffset" : 337088
        },
        {
            "buffer" : 0,
            "byteLength" : 23418,
            "byteOffset" : 384120
        },
        {
            "buffer" : 0,
            "byteLength" : 1272,
            "byteOffset" : 407540
        },
        {
            "buffer" : 0,
            "byteLength" : 1272,
            "byteOffset" : 408812
        },
        {
            "buffer" : 0,
            "byteLength" : 848,
            "byteOffset" : 410084
        },
        {
            "buffer" : 0,
            "byteLength" : 648,
            "byteOffset" : 410932
        },
        {
            "buffer" : 0,
            "byteLength" : 38520,
            "byteOffset" : 411580
        },
        {
            "buffer" : 0,
            "byteLength" : 38520,
            "byteOffset" : 450100
        },
        {
            "buffer" : 0,
            "byteLength" : 17112,
            "byteOffset" : 488620
        }
    ],
    "buffers" : [
        {
            "byteLength" : 505732,
            "uri" : "data:application/octet-stream;base64,"
        }
    ]
}
